<svg xmlns="http://www.w3.org/2000/svg"  viewBox="0 0 478.445 478.445" width="32px" height="32px"><path fill="#b9dcff" d="M429.664,106.633l19.606,33.959c3.987,6.906,2.281,15.693-4.001,20.605l-22.503,17.595	c-4.927,3.852-7.209,10.235-5.71,16.307c6.952,28.146,7.313,58.503,0.063,87.999c-1.515,6.164,0.647,12.647,5.647,16.557	l22.502,17.594c6.282,4.912,7.988,13.699,4.001,20.605l-19.606,33.959c-3.987,6.906-12.45,9.821-19.845,6.837l-26.499-10.695	c-5.825-2.351-12.525-1.133-17.048,3.225c-21.128,20.351-47.123,35.674-76.08,44.046c-6.108,1.766-10.654,6.883-11.54,13.178	l-3.981,28.27c-1.112,7.897-7.869,13.769-15.844,13.769h-39.211c-7.975,0-14.732-5.872-15.844-13.769l-3.981-28.27	c-0.887-6.296-5.433-11.412-11.54-13.178c-28.957-8.373-54.951-23.695-76.08-44.046c-4.524-4.357-11.224-5.576-17.049-3.225	l-26.499,10.695c-7.394,2.984-15.858,0.069-19.845-6.837l-19.606-33.959c-3.987-6.906-2.281-15.693,4.001-20.605l22.503-17.595	c4.927-3.852,7.209-10.235,5.71-16.307c-6.952-28.146-7.313-58.503-0.063-87.999c1.515-6.164-0.647-12.647-5.647-16.557	l-22.502-17.594c-6.282-4.912-7.988-13.699-4.001-20.605l19.606-33.959c3.987-6.906,12.45-9.821,19.845-6.837l26.499,10.695	c5.825,2.351,12.525,1.133,17.049-3.225c21.128-20.351,47.123-35.674,76.08-44.046c6.107-1.766,10.654-6.883,11.54-13.178	l3.981-28.27c1.112-7.897,7.869-13.769,15.844-13.769h39.211c7.975,0,14.732,5.872,15.844,13.769l3.981,28.27	c0.887,6.296,5.433,11.412,11.54,13.178c28.957,8.373,54.951,23.695,76.08,44.046c4.524,4.357,11.224,5.576,17.048,3.225	l26.499-10.695C417.214,96.812,425.677,99.728,429.664,106.633z"/><path fill="#d1e7ff" d="M290.965,109.084c-109.742,32.509-172.117,140.006-155.7,250.394	c1.882,12.653-13.221,21.213-23.093,11.705c-4.52-4.36-11.22-5.58-17.05-3.23l-26.5,10.7c-7.39,2.98-15.85,0.06-19.84-6.84	l-19.61-33.96c-3.99-6.9-2.28-15.69,4-20.6l22.51-17.6c4.92-3.85,7.21-10.23,5.71-16.31c-6.96-28.14-7.32-58.5-0.07-87.99	c1.52-6.17-0.64-12.65-5.64-16.56l-22.51-17.6c-6.28-4.91-7.99-13.7-4-20.6l19.61-33.96c3.99-6.9,12.45-9.82,19.84-6.84l26.5,10.7	c5.83,2.35,12.53,1.13,17.05-3.23c21.13-20.35,47.12-35.67,76.08-44.04c6.11-1.77,10.65-6.89,11.54-13.18l3.98-28.27	c1.11-7.9,7.87-13.77,15.84-13.77h39.22c7.97,0,14.73,5.87,15.84,13.77l3.98,28.27c0.89,6.29,5.43,11.41,11.54,13.18	C314.226,70.172,313.347,102.454,290.965,109.084z"/><path fill="#d1e7ff" d="M239.223,119.223c65.83,0,120,54.17,120,120s-54.17,120-120,120s-120-54.17-120-120	S173.393,119.223,239.223,119.223z"/><path fill="#e8f3ff" d="M259.593,120.982c-71.489,33.465-116.402,100.683-125.29,176.17c-9.6-17.21-15.08-36.98-15.08-57.93	C119.223,165.619,186.449,108.189,259.593,120.982z"/><path fill="#2e58ff" d="M463.151,329.813l-33.51,58.042c-1.994,3.452-6.227,4.91-9.923,3.418L370.39,371.36	c-4.097-1.653-6.078-6.315-4.424-10.412c1.654-4.099,6.315-6.08,10.413-4.424l42.881,17.31l26.558-46.001l-36.386-28.444	c-2.612-2.042-3.693-5.482-2.72-8.651c10.078-32.808,10.463-68.968,0-103.029c-0.973-3.169,0.108-6.609,2.72-8.651l36.386-28.444	l-26.558-46.001l-42.881,17.31c-3.075,1.243-6.595,0.458-8.853-1.97c-24.083-25.895-54.915-43.712-89.161-51.526	c-3.235-0.738-5.679-3.397-6.142-6.684L265.781,16h-53.117l-6.442,45.741c-0.463,3.286-2.907,5.945-6.142,6.684	c-34.247,7.814-65.078,25.632-89.161,51.526c-2.258,2.428-5.778,3.213-8.853,1.97l-42.881-17.31l-26.559,46.001l36.386,28.444	c2.612,2.042,3.693,5.482,2.72,8.651c-10.078,32.808-10.463,68.968,0,103.029c0.973,3.169-0.108,6.609-2.72,8.651l-36.386,28.444	l26.559,46.001l42.881-17.31c3.075-1.243,6.596-0.458,8.853,1.97c24.083,25.895,54.915,43.712,89.161,51.526	c3.235,0.738,5.679,3.397,6.142,6.684l6.442,45.741h53.117l6.442-45.741c0.463-3.286,2.907-5.945,6.142-6.684	c18.752-4.278,36.577-11.602,52.977-21.764c3.759-2.325,8.688-1.167,11.014,2.587c2.327,3.756,1.169,8.688-2.586,11.015	c-16.328,10.117-33.952,17.656-52.459,22.45l-6.655,47.253c-0.556,3.947-3.935,6.884-7.922,6.884h-67.021	c-3.987,0-7.366-2.937-7.922-6.884l-6.655-47.253c-33.458-8.658-63.725-26.149-88.106-50.919l-44.301,17.883	c-3.697,1.494-7.929,0.035-9.923-3.418l-33.511-58.042c-1.994-3.453-1.14-7.847,2.001-10.303l37.595-29.39	c-9.146-33.188-9.148-68.599,0-101.795l-37.595-29.39c-3.141-2.456-3.995-6.85-2.001-10.303l33.511-58.042	c1.994-3.453,6.225-4.911,9.923-3.418l44.301,17.883c24.381-24.77,54.648-42.261,88.106-50.919l6.655-47.253	C198.346,2.937,201.725,0,205.712,0h67.021c3.987,0,7.366,2.937,7.922,6.884l6.655,47.253c33.458,8.658,63.725,26.149,88.106,50.919	l44.302-17.883c3.697-1.491,7.93-0.036,9.923,3.418l33.51,58.042c1.994,3.453,1.14,7.847-2.001,10.303l-37.595,29.39	c9.146,33.188,9.148,68.599,0,101.795l37.595,29.39C464.291,321.966,465.145,326.359,463.151,329.813z M226.118,277.279l40-68	c2.24-3.809,0.969-8.712-2.839-10.952c-3.807-2.239-8.711-0.969-10.952,2.839l-40,68c-2.24,3.809-0.969,8.712,2.839,10.952	C218.976,282.358,223.879,281.086,226.118,277.279z M194.879,208.554c-3.123-3.122-8.188-3.123-11.313,0l-25.012,25.012	c-3.122,3.123-3.124,8.189,0,11.314l25.012,25.012c3.125,3.124,8.189,3.123,11.313,0c3.125-3.125,3.125-8.19,0-11.314	l-19.355-19.354l19.355-19.354C198.004,216.744,198.004,211.679,194.879,208.554z M288.223,272.235c2.047,0,4.095-0.781,5.657-2.343	l25.012-25.013c3.122-3.123,3.124-8.189,0-11.314l-25.012-25.012c-3.124-3.123-8.189-3.123-11.313,0	c-3.125,3.125-3.125,8.19,0,11.314l19.355,19.354l-19.355,19.355C277.51,263.635,281.16,272.235,288.223,272.235z M192.405,366.91	c15.27,5.599,31.102,8.386,46.895,8.385c98.825-0.005,165.058-103.194,123.314-193.261c-31.533-68.036-112.54-97.736-180.58-66.204	c-86.499,40.09-106.111,155.354-36.93,221.612c3.191,3.057,8.256,2.947,11.311-0.244c3.056-3.19,2.947-8.255-0.244-11.311	c-61.001-58.426-43.772-160.149,32.59-195.54c60.037-27.823,131.512-1.619,159.335,58.415	c27.824,60.033,1.619,131.511-58.415,159.335c-29.083,13.479-61.674,14.825-91.771,3.791c-4.147-1.519-8.744,0.61-10.265,4.757	C186.126,360.794,188.256,365.39,192.405,366.91z"/></svg>